<svg id="Layer_3" data-name="Layer 3" xmlns="http://www.w3.org/2000/svg" viewBox="0 0 35.08 40.05"><defs><style>.cls-1{fill:#f4f4f5;}</style></defs><path class="cls-1" d="M293.24,250.23a.84.84,0,0,0-.09-.19,2.79,2.79,0,0,1-.28-.32.64.64,0,0,1-.06-.36.73.73,0,0,0-.06-.52c0-.07,0-.2,0-.29s.13-.37,0-.59a1.22,1.22,0,0,1,0-.46l.12-1.09s0,0,0-.08a3.62,3.62,0,0,1,0-.87,5.43,5.43,0,0,0,0-.57.21.21,0,0,1,0-.11c.12-.38,0-.79.07-1.16s0-.57.09-.85a.63.63,0,0,0-.05-.38.28.28,0,0,1,0-.22c0-.15,0-.31.07-.45s-.08-.4,0-.59a.21.21,0,0,0-.1-.31c.08-.21.18-.42.24-.63a.69.69,0,0,0-.05-.34s-.07-.09,0-.14,0,0,0-.06a2.16,2.16,0,0,1,.13-1.1,1.85,1.85,0,0,0,.06-.56,1.32,1.32,0,0,1,0-.49l.12-.51c0-.17.07-.34.11-.51s.1-.46.17-.68a2,2,0,0,0,.11-.64.44.44,0,0,1,0-.15c.08-.18.13-.37.2-.55a1.4,1.4,0,0,1,.38-.56.6.6,0,0,1,.76.08c.14.15.26.32.4.47a.31.31,0,0,1,0,.39,1.21,1.21,0,0,0-.06.31c0,.1,0,.23-.09.3-.18.24-.08.55-.24.8a2.88,2.88,0,0,0-.18.59,2.05,2.05,0,0,0-.07.34c0,.13-.07.25-.1.38L295,238c0,.05-.05.08-.07.13a.19.19,0,0,0,0,.08c0,.12,0,.24,0,.35s-.07.11-.05.14a.53.53,0,0,1,0,.45,5.16,5.16,0,0,0-.09.52s-.07.08-.11.13.12.27,0,.42,0,.05,0,.07,0,.28-.05.42,0,.08,0,.11a3.38,3.38,0,0,1-.06.78,6,6,0,0,0-.08.84c0,.1,0,.15-.08.16a2.22,2.22,0,0,1,0,.51,9.81,9.81,0,0,0-.07,1.09,2.71,2.71,0,0,0-.09.41,3.39,3.39,0,0,1-.1.84.25.25,0,0,0,0,.12,3,3,0,0,1,0,1.08c0,.18,0,.38-.09.55s0,.16,0,.23c0,.23,0,.46,0,.68s0,.26-.06.36,0,0,0,0c.13.16,0,.31,0,.47a.54.54,0,0,1-.09.5s0,.09,0,.14c0,.25-.2.37-.32.54l-.09.14Z" transform="translate(-270.65 -210.19)"/><path class="cls-1" d="M300.19,210.2a5,5,0,0,1,.8.72.64.64,0,0,1,0,.43c-.14.18-.29.35-.44.53a1.12,1.12,0,0,1-.16.1c-.1-.13-.17-.21-.34-.16s-.19-.08-.28-.13,0-.08-.07-.09c-.25-.11-.26-.33-.32-.54l.09,0a.68.68,0,0,1,0-.19.82.82,0,0,1,.57-.66Z" transform="translate(-270.65 -210.19)"/><path class="cls-1" d="M305.72,225.08a1.67,1.67,0,0,0-.12.16c-.06.12-.12.2-.28.16s-.4-.06-.6-.1c0,0-.06,0-.09-.05l-.21-.11,0,0c-.11-.2-.21-.41-.33-.61a.24.24,0,0,1,0-.28.94.94,0,0,1,.28-.24,3,3,0,0,1,.45-.16c.12,0,.2,0,.19.14a.08.08,0,0,0,0,.06,1.32,1.32,0,0,1,.34.4,3.72,3.72,0,0,0,.33.45Z" transform="translate(-270.65 -210.19)"/><path class="cls-1" d="M289,220.38c.15-.25.15-.25.32-.35l0,0c.22-.06.34.13.5.2s.07.17.07.26,0,.28-.07.47l-.88-.45Z" transform="translate(-270.65 -210.19)"/><path class="cls-1" d="M297.52,217.25a.94.94,0,0,1,.2-.77.32.32,0,0,0,.07-.3.24.24,0,0,1,0-.12l.3-.75a1.57,1.57,0,0,1,.08-.31c0-.08.12-.13.17-.21a.63.63,0,0,1,.37-.27.12.12,0,0,0,.08-.1c0-.21.2-.28.34-.39a.41.41,0,0,1,.54,0c.12.1.25.19.38.28a.45.45,0,0,1,.24.44.2.2,0,0,1-.06.15c-.17.15-.18.35-.25.54a1.34,1.34,0,0,1-.2.46.93.93,0,0,0-.16.45c0,.05,0,.08,0,.11a.19.19,0,0,0-.05.1c-.07.26-.14.52-.19.78s0,.41-.07.61a.19.19,0,0,1,0,.07c-.18.18-.12.41-.12.63s0,.62-.05.92c0,0,0,.08,0,.1.14.21,0,.44,0,.65s.09.47.13.71.07.44.12.65.08.13.11.21a3.58,3.58,0,0,1,.23.65c0,.07.1.12.16.18l-.13,0c.11.1.2.2.3.28a4.87,4.87,0,0,0,.42.35.56.56,0,0,0,.17.09c.26.08.52.14.76.24a1.44,1.44,0,0,1,.33.25c.07,0,.19-.11.31,0s.1,0,.15,0a.28.28,0,0,1,.32.2.16.16,0,0,1,0,.12c-.13.09-.13.22-.08.4a.2.2,0,0,0-.27,0,.9.9,0,0,1-.41.13,1,1,0,0,1-.6-.05s-.11,0-.11.05-.13.14-.18.21a.27.27,0,0,1-.32.12c-.06,0-.14.07-.23.11a1.75,1.75,0,0,0-.56,0,1.22,1.22,0,0,0-.46.3,3.39,3.39,0,0,0-.36.39c-.17.19-.34.37-.5.57s-.35.42-.52.63c0,0-.06.06-.06.08s-.12.25-.22.35a2.14,2.14,0,0,0-.17.3,4,4,0,0,0-.27.5,5.78,5.78,0,0,0-.24.7c0,.13-.09.26-.13.39s0,.26-.06.38a.83.83,0,0,1-.06.21c0,.05-.06.1-.05.14.06.33-.17.6-.15.91a1,1,0,0,1-.29.1c-.12,0-.28,0-.37-.12a.31.31,0,0,0-.26-.14c-.12,0-.14-.09-.25-.06.12-.11.14-.2,0-.27a.35.35,0,0,1-.17-.47,2.22,2.22,0,0,0,.08-.68c0-.24-.06-.47-.08-.7a2.58,2.58,0,0,0,0-.56,2.91,2.91,0,0,1-.07-.77c0-.28,0-.55-.05-.82s0-.56-.07-.84,0-.34,0-.51a5.08,5.08,0,0,0,0-.78.84.84,0,0,0-.19-.36.47.47,0,0,1-.12-.32.4.4,0,0,0-.26-.42c-.21-.07-.41-.18-.61-.24s-.3-.16-.46,0c0,0-.05,0-.06,0-.21-.11-.46-.13-.63-.31a.35.35,0,0,0-.17-.09.8.8,0,0,1-.48-.4s0-.07,0-.11a2.91,2.91,0,0,0,0-.3c0-.17.17-.23.31-.29a1.56,1.56,0,0,0,.19-.14,1.82,1.82,0,0,1,.71-.38.19.19,0,0,1,.08,0,.47.47,0,0,0,.51,0,.61.61,0,0,1,.56,0,.14.14,0,0,0,.11,0l.32-.07.15-.21,0,0,.24-.11a2.71,2.71,0,0,0,.34-.18,6.34,6.34,0,0,0,.6-.41,1,1,0,0,0,.19-.3,5.71,5.71,0,0,0,.35-.64c.16-.37.28-.75.41-1.12.05-.14.1-.29.16-.44a1,1,0,0,1,.29-.51Zm-2.41,5.4v.07c.07,0,.09.17.21.08s0-.08,0-.13Z" transform="translate(-270.65 -210.19)"/><path class="cls-1" d="M304.15,217.19l.57-.24.42.19c.27.11.31.29.13.55a.9.9,0,0,1,0,.25c-.17.3-.37.58-.52.88s-.37.4-.47.65a1.7,1.7,0,0,1-.42.5,3.46,3.46,0,0,0-.22.31l-.24.21-.09.08c-.07.05-.13.12-.2.16s-.17,0-.23-.09a.17.17,0,0,0-.14,0c-.2,0-.29-.09-.39-.22a.52.52,0,0,0-.1-.11.5.5,0,0,1-.11-.7,1.77,1.77,0,0,1,.39-.5.6.6,0,0,0,.32-.45,8.45,8.45,0,0,0,.91-1C303.89,217.48,304,217.31,304.15,217.19Z" transform="translate(-270.65 -210.19)"/><path class="cls-1" d="M289.84,230.11c0-.1,0-.2,0-.3a5.6,5.6,0,0,1,.12-.59.34.34,0,0,1,.09-.15.87.87,0,0,1,.31-.34l.29-.18.74-.48h.06c.1-.22.22-.14.34,0s.38.16.54.32.2.25.14.53a.82.82,0,0,1-.44.52,4.64,4.64,0,0,1-.74.51,4.12,4.12,0,0,0-.45.27.54.54,0,0,1-.65,0c-.07-.06-.19-.05-.28-.07Z" transform="translate(-270.65 -210.19)"/><path class="cls-1" d="M292.63,216c0-.09.14-.18,0-.3a.84.84,0,0,0,.19-.08.79.79,0,0,0,.08-.16l.21,0c.22,0,.38.12.52.23a6.57,6.57,0,0,1,.77.81c.13.15.19.36.31.52a1.22,1.22,0,0,1,.24.5.55.55,0,0,1-.12.45.22.22,0,0,1-.24.07.9.9,0,0,1-.74-.35c-.06-.1-.19-.15-.28-.22a1.59,1.59,0,0,1-.08-.33.16.16,0,0,0-.15-.16.25.25,0,0,1-.15-.15c0-.21-.23-.33-.31-.52A1.89,1.89,0,0,0,292.63,216Z" transform="translate(-270.65 -210.19)"/><path class="cls-1" d="M301.13,231.21c.21,0,.19.25.25.41s.06.2.1.29a.28.28,0,0,1-.12.43c-.25.18-.36.18-.57,0s-.26-.13-.32-.29a.76.76,0,0,1-.1-.41.07.07,0,0,0,0-.08l-.4-.32a1.73,1.73,0,0,1-.26-.28c0-.05-.08-.16-.13-.16a.28.28,0,0,1-.23-.21c-.06-.15-.16-.31-.08-.49a.53.53,0,0,1,.11-.15l.25-.17c.14-.09.24,0,.39.05s.3.33.52.4c0,0,.09.05.09.09a.82.82,0,0,0,.2.25c.05.06.17.09.15.23s.13.16.18.26S301.14,231.13,301.13,231.21Z" transform="translate(-270.65 -210.19)"/><path class="cls-1" d="M294.46,220.13c-.28-.17-.28-.19-.1-.34C294.39,219.89,294.42,220,294.46,220.13Z" transform="translate(-270.65 -210.19)"/><path class="cls-1" d="M279,214.58a2.44,2.44,0,0,0,.2-.67,10.17,10.17,0,0,1,.3-1.08,2.63,2.63,0,0,0,.08-.3c.06-.2.14-.4.21-.6a3.32,3.32,0,0,1,.42-.87c.08-.11.15-.22.23-.32a.12.12,0,0,1,.08,0c.1,0,.21.06.27.16a4,4,0,0,1,.43,1c.08.29.19.57.28.86.13.44.25.88.37,1.33.05.15.08.31.12.47a.21.21,0,0,0,.23.19,2,2,0,0,1,.49.05,1.4,1.4,0,0,0,.41,0,1.65,1.65,0,0,1,1.1.26.31.31,0,0,0,.1.05l.12,0a.38.38,0,0,0,.15.21,1.18,1.18,0,0,1,.27.23c.16.16.16.2,0,.4l-.19.06-.27.1a1,1,0,0,0-.18.07c-.35.21-.73.37-1.06.61-.08,0-.19.08-.28.13l-.18.09c.1.16.2.3.28.45a1.25,1.25,0,0,1,.12.34l.25,1c.05.2.1.39.14.58a1.61,1.61,0,0,1,0,.31c0,.1-.06.16-.16.16a.83.83,0,0,1-.61-.1,3.12,3.12,0,0,1-.82-.88c-.09-.13-.15-.26-.23-.39l-.4-.58a.81.81,0,0,0-.32-.29c-.08,0-.14-.13-.21-.21a.33.33,0,0,1,0-.1c0-.25.2-.34.43-.23a1.51,1.51,0,0,1,.51.39,6.75,6.75,0,0,1,.77,1.07,1.31,1.31,0,0,0,.13.16c0-.06,0-.09,0-.12-.06-.22-.13-.44-.19-.66a1.85,1.85,0,0,0-.12-.4,1.13,1.13,0,0,1-.06-.32.2.2,0,0,1,.11-.18.45.45,0,0,1,.12-.06.26.26,0,0,1,0-.28s0-.12,0-.19a.2.2,0,0,1,.08-.19c.17-.13.33-.27.52-.39s.34-.22.53-.32c0,0,0-.05.09-.1h-.22a2,2,0,0,1-.84-.06l-.17,0a.85.85,0,0,1-.6-.19l-.3-.18a.43.43,0,0,1-.21-.27c-.07-.28-.16-.56-.21-.84s-.16-.57-.24-.85l-.12-.45-.16-.58a2.07,2.07,0,0,0-.24.5c-.15.41-.29.82-.42,1.24a5.29,5.29,0,0,0-.13.54c-.06.2-.13.39-.18.59s-.06.24-.08.37a.6.6,0,0,1-.39.07l-.88-.11a3,3,0,0,0-.74,0,1.39,1.39,0,0,0,.23.25,3.71,3.71,0,0,1,.66.71,2.76,2.76,0,0,0,.45.57,1,1,0,0,1,.32.54.25.25,0,0,1-.07.08,1.39,1.39,0,0,0-.47.55c-.12.23-.21.47-.31.71,0,0,0,0,0,.08l.11,0a3.94,3.94,0,0,0,.51-.49,2,2,0,0,1,.47-.4,2.18,2.18,0,0,1,.43-.22l.25-.1a.58.58,0,0,1,.37,0,.76.76,0,0,1,.47.39.48.48,0,0,1-.27.27c-.1,0-.18.1-.28.14a2.48,2.48,0,0,0-.78.54c-.15.15-.31.28-.46.42a3.33,3.33,0,0,0-.25.28l-.26.3-.19.19a.32.32,0,0,1-.38.1l-.17,0a.18.18,0,0,0-.23.11c-.25,0-.29-.06-.32-.3,0,0,0-.05,0-.06s0-.21-.05-.31a1.65,1.65,0,0,1,.15-.73,4.42,4.42,0,0,1,.15-.48,6.49,6.49,0,0,1,.47-1c.09-.14.19-.28.3-.43-.09-.1-.13-.25-.29-.29s0,0-.05,0a4,4,0,0,0-.71-.66,3.36,3.36,0,0,0-.43-.31.27.27,0,0,1-.16-.22s-.07-.09-.08-.14a.63.63,0,0,1,.05-.43.35.35,0,0,1,.21-.18,1.59,1.59,0,0,1,.61-.06,9.1,9.1,0,0,1,1.16.11Z" transform="translate(-270.65 -210.19)"/><path class="cls-1" d="M276.46,229.68c-.18.19-.35.37-.53.54-.36.35-.68.73-1.07,1.06a8.86,8.86,0,0,0-.87,1l.64.26c.05,0,.11,0,.12.06.14.26.43.36.65.56a.51.51,0,0,0,0,.2,6,6,0,0,1,.42,1.37c.15.49.3,1,.44,1.46a1.25,1.25,0,0,1,.09.25,10.47,10.47,0,0,0,.39,1.32c0,.11.08.22.14.38a1.31,1.31,0,0,0,.12-.19q.16-.47.3-.93c.11-.36.22-.71.32-1.06s.18-.56.26-.84.14-.44.19-.67a2.16,2.16,0,0,1,.41-.85,1.74,1.74,0,0,0,.37-.73.93.93,0,0,1,.19-.35.35.35,0,0,1,.39-.06,2.09,2.09,0,0,0,.23.08.79.79,0,0,1,.55.32c.26.31.6.55.89.84a3.41,3.41,0,0,1,.37.39c.38.49.75,1,1.14,1.51,0-.08.09-.14.09-.2a3.81,3.81,0,0,0-.24-1.41,2.33,2.33,0,0,1-.26-.69,1.43,1.43,0,0,0-.19-.57c-.14-.26-.28-.52-.43-.77s-.49-.76-.67-1.16a5.16,5.16,0,0,0-.51-.88c-.11-.15-.08-.3-.12-.45s.24-.3.42-.23l.26.11h.06c.18-.51.59-.91.79-1.41a6,6,0,0,0,.43-1.48.92.92,0,0,0,0-.16.57.57,0,0,0-.49.12c-.52.35-1.1.62-1.64.93-.21.11-.44.16-.66.25a.17.17,0,0,1-.1,0c-.27-.11-.63-.11-.75-.45,0-.1-.17-.18-.17-.29s.16-.16.27-.21l.62-.33c.3-.15.55-.36.85-.5s.75-.47,1.14-.69c.2-.11.39-.25.59-.38a2.31,2.31,0,0,1,.51-.22.89.89,0,0,1,.83.15.41.41,0,0,1,.07.11c0,.08.06.16.1.23a1.1,1.1,0,0,1,.1.56,4.26,4.26,0,0,1,0,.5c0,.12-.06.24-.09.36s-.07.11-.07.17a10.32,10.32,0,0,1-.4,1.64.67.67,0,0,1-.1.23,8.53,8.53,0,0,0-.48,1.07c-.12.34-.37.43-.86.38a.51.51,0,0,0,.1.41c.29.5.58,1,.88,1.51s.49.75.69,1.15a7.52,7.52,0,0,1,.39,1c.06.15.1.3.15.45a.74.74,0,0,1,0,.44.36.36,0,0,0,0,.27.51.51,0,0,1,.07.31c0,.2,0,.41,0,.61a.91.91,0,0,1-.13.38.36.36,0,0,0-.05.3,1,1,0,0,1-.05.3l-.37,0a.49.49,0,0,1-.45-.12c-.19-.17-.45-.27-.51-.52-.34-.16-.43-.48-.63-.73a8,8,0,0,1-.53-.76,6,6,0,0,0-1-1,1.43,1.43,0,0,0-.21-.12c-.19.1-.23.29-.35.42s0,.09,0,.12a2.49,2.49,0,0,0-.47.95c0,.08-.11.15-.15.24a.52.52,0,0,0-.08.26,1,1,0,0,1-.16.66,1,1,0,0,0-.1.34,2.6,2.6,0,0,1-.17.54.52.52,0,0,0,0,.21.84.84,0,0,1-.2.58.67.67,0,0,0-.1.28c0,.25-.12.49-.18.73a4.57,4.57,0,0,1-.43,1,.55.55,0,0,1-.79.16,1.17,1.17,0,0,1-.58-.95,1.44,1.44,0,0,0-.09-.4c-.31-1-.6-2.07-.93-3.1-.2-.63-.38-1.27-.56-1.91,0-.08-.07-.17-.11-.28l-.28.19a4.38,4.38,0,0,1-1.26.73c-.36.14-.7.32-1.05.49a1.23,1.23,0,0,1-.57.06.36.36,0,0,1-.21-.11,2.42,2.42,0,0,1-.35-.44,1.3,1.3,0,0,1-.09-.42,3.71,3.71,0,0,0,.88-1.13,11.4,11.4,0,0,1,1.14-1.36c.26-.25.49-.52.74-.77l1.12-1.14c.21,0,.24-.24.35-.36s.21-.25.32-.36a.29.29,0,0,0,0-.36c-.3-.51-.6-1-.89-1.54a5.73,5.73,0,0,1-.25-.62c-.19-.49-.41-1-.57-1.47,0-.11-.06-.23-.09-.34a.24.24,0,0,0-.06-.09.74.74,0,0,1-.14-.84,1.71,1.71,0,0,1,.85.22,3.69,3.69,0,0,1,.55.4,6.45,6.45,0,0,0,.75.49,8.84,8.84,0,0,1,1,.67c.39.29.75.6,1.12.91a4.86,4.86,0,0,1,.89,1,.9.9,0,0,1,.13.4.23.23,0,0,1-.11.27.59.59,0,0,1-.38.05.89.89,0,0,1-.52-.46,2,2,0,0,0-.56-.66l-.06,0a3.56,3.56,0,0,0-.92-.7l-1-.7c-.08-.05-.15-.1-.26,0a1.93,1.93,0,0,0,.26.74,4.13,4.13,0,0,1,.36.69,2.29,2.29,0,0,0,.42.7c.23.26.25.59.41.87,0,0,0,.08,0,.13s0,.19,0,.24C276.35,229.21,276.34,229.44,276.46,229.68Z" transform="translate(-270.65 -210.19)"/></svg>