<svg id="Layer_3" data-name="Layer 3" xmlns="http://www.w3.org/2000/svg" viewBox="0 0 42.92 35.69"><defs><style>.cls-1{fill:#f4f4f5;}</style></defs><path class="cls-1" d="M323.1,216.51h.07l-.19-.27,0,.06-.11-.12.15,0c-.15-.18-.2-.4-.36-.55l0-.07-.17-.14h0s0-.05,0-.09a1,1,0,0,0-.27-.34s0,0,0,0h0l0,0a.29.29,0,0,0-.11-.11.43.43,0,0,1-.16-.2,3.3,3.3,0,0,0-.23-.41.65.65,0,0,0-.09-.16l-.06,0c0-.2-.18-.33-.24-.5a2.42,2.42,0,0,0-.27-.5l-.06,0,0,0,0-.11-.16-.29-.08,0v-.08c-.09,0-.11-.14-.15-.23l0,0,0,0,0,0v-.09l-.12,0-.09-.13v-.11a1,1,0,0,0-.13-.21,1.59,1.59,0,0,1-.18-.34c-.09-.17-.13-.36-.23-.51s-.09-.26-.16-.38-.09-.17-.13-.25a.78.78,0,0,1-.09-.24.94.94,0,0,0-.1-.23,2,2,0,0,0-.15-.29,2,2,0,0,0-.08-.22c-.1-.16-.14-.34-.25-.5a.75.75,0,0,1-.1-.33.22.22,0,0,0-.14-.2l0-.08-.09-.11a.45.45,0,0,0-.11-.31,3,3,0,0,1-.16-.42l-.07-.06a.43.43,0,0,0,0,0,.72.72,0,0,0-.07-.33.58.58,0,0,1-.11-.31s0,0,0,0a1.92,1.92,0,0,1-.16-.42c0-.15-.1-.29-.15-.44s-.08-.29-.13-.43a1,1,0,0,0-.08-.14s0-.12,0-.16,0-.15-.07-.22a.79.79,0,0,1-.05-.22v-.13l-.06-.12.12,0c0-.19-.07-.38-.11-.58s.17,0,.24-.09v-.2l.24-.24,0-.13.13-.15h.14l.07-.2.06.16.17,0h0c0,.09.07.1.11.12l.28,0a.26.26,0,0,1,.28-.17,1.24,1.24,0,0,0,.16,0l.12.08h0l0,0h0c0,.09.07.1.12.13a.52.52,0,0,0,.38.15.23.23,0,0,0,.23.15c.08,0,.11,0,.17.06s.13.06.19.06a.54.54,0,0,1,.19.08,2.43,2.43,0,0,1,.52.3c.13.12.3.18.43.3a3.7,3.7,0,0,0,.46.31s0,0,0,0a1.24,1.24,0,0,0,.26.19c.14.1.27.23.41.34a3.19,3.19,0,0,0,.4.33c.05,0,.08.09.12.12l.2.18a.75.75,0,0,1,.17.14.58.58,0,0,0,.14.13l.43.38.15.05a.15.15,0,0,0,.06.19,1.33,1.33,0,0,1,.29.29l.12.14.09,0a.32.32,0,0,0,.22.31.44.44,0,0,1,.14.16,1.56,1.56,0,0,1,.14.19l0-.07.05,0,0,.1.1.12,0,0h0l.06,0,0,.12.22.22,0-.06a4,4,0,0,1,.33.39l0,.14.06-.1a1.71,1.71,0,0,0,.21.33l0,0,0,0s.07,0,0,.1l.08,0,0,.07-.07.07.11,0,0,.07h.07l.05.08-.07.05.17.05-.06,0,0,.06.1,0,0,.08.15.09,0,.08.17.15v.12l.13.06,0,.11h.09c.15.21.31.41.44.63s.22.26.2.43l.09,0,0,.08.14.12a.38.38,0,0,0,.07.15,1,1,0,0,1,.16.24c.09.16.19.31.26.47a.79.79,0,0,0,.15.25.61.61,0,0,1,.09.18c0,.06.12.07.08.15l.11.13,0,.16.11,0s0,.05,0,.07l-.08.05c.05.08.09.13.18.11s0-.09,0-.12,0-.2-.07-.3a2.18,2.18,0,0,0-.09-.23v0l-.08-.06.07-.08,0-.21c-.1-.1-.06-.27-.12-.4l0-.12-.06-.09-.07-.38.06-.06-.14-.27c.08-.12,0-.23,0-.35a.62.62,0,0,1,0-.27.09.09,0,0,0,0-.07.25.25,0,0,1,0-.19c0-.06,0-.13,0-.2s-.11-.14,0-.23l-.05,0v-.06l-.07-.1.05-.07V209l-.08-.11,0-.27-.07-.15c.08-.11,0-.19-.07-.28l0-.08,0,0s0-.11.07-.14l-.08-.14.07-.08-.15-.28.1-.11c0-.16-.11-.3,0-.46l-.06-.12c.08-.12,0-.24,0-.36l-.07-.06.05-.27,0-.07c0-.13,0-.24,0-.35a1.62,1.62,0,0,0,0-.2c0-.22,0-.45,0-.67a.73.73,0,0,0,0-.2,2.63,2.63,0,0,0,0-.49l-.07-.05c0-.11,0-.23,0-.34a.44.44,0,0,0,0-.15h0a3.3,3.3,0,0,0,0-.77s0-.09,0-.12a.82.82,0,0,0,0-.41.26.26,0,0,1,0-.15c0-.06,0-.11,0-.16l.06-.09-.06-.1c.05-.18-.05-.37,0-.56l0-.11v-.24a.21.21,0,0,0,0-.16,1.35,1.35,0,0,1,0-.45v-.72s0,0,0-.07l.1-.19,0-.06,0-.15-.11,0,.1-.08c0-.11,0-.24,0-.38a2.07,2.07,0,0,1,.07-.49.48.48,0,0,0,0-.12l-.06,0c.12-.07,0-.19.06-.28s0-.24,0-.36,0-.12,0-.17h0c.07-.06,0-.13,0-.2h-.07a.2.2,0,0,1,.09-.15l-.06-.07v-.17l.11-.09,0-.26.06,0,0-.17a.3.3,0,0,1,0-.26.19.19,0,0,0,0-.08,4.21,4.21,0,0,0,0-.5.14.14,0,0,1,0-.06s0-.06,0-.08a1.14,1.14,0,0,1,.07-.41.92.92,0,0,0,0-.09c.08-.09.05-.23.09-.34s0-.25.05-.31c.05-.22.07-.39.11-.55a.28.28,0,0,0,0-.2.48.48,0,0,0,.09-.37,1.24,1.24,0,0,0,.14-.45.49.49,0,0,1,.08-.21l.06,0c0-.12.14-.21.09-.35s0-.05,0-.08.13-.32.2-.49l.17-.07c0-.14,0-.27-.06-.4l.23-.13.08.06.1,0a.56.56,0,0,0,.05.08.15.15,0,0,0,.09,0l-.06-.08,0-.06-.06-.07.09-.12,0-.07h.07c.06.05.1.13.19.15s.05,0,.06.06a1.66,1.66,0,0,0,.25.34s0,.07,0,.11l.08,0V191c.09.1.16,0,.23,0h.13l.09.19.1,0-.12.11.05.06,0,.07,0,0c0,.1,0,.18.08.25s.09.17.15.25l.15.25.05,0c.05.11.1.23.16.34s.14.35.28.49l0,0c.07.26.24.48.33.74a1.06,1.06,0,0,0,.21.31c0,.06.06.09.06.16s.08.1,0,.18l.09.07,0,.11.09.1V195l.09.06v.08l.09,0-.06,0,.08.06,0,.18.17.13c0,.11,0,.23.11.32a.34.34,0,0,1,0,.11l.08.09,0,.16c.13.08.08.24.16.35l.07,0,.06.35.1.12,0,.14.07.05,0,.15h.07c0,.16.07.26.15.38s0,.15,0,.22c.15,0,.12.16.13.26s0,.25.15.31l0,.12.07.06.08.27,0,.1s0,0,0,0,.05.06.06.11a.58.58,0,0,1,.06.29.2.2,0,0,0,0,.11.42.42,0,0,1,.1.3.27.27,0,0,0,.1.26l0,.41.08.08v.16l.07.09a.18.18,0,0,0,0,.22s0,.05,0,.08a.62.62,0,0,0,.09.32l0,.06a.56.56,0,0,1,.05.08.52.52,0,0,1,0,.11l.07,0a.36.36,0,0,1,0,.27l.11.14,0,.17a.4.4,0,0,1,.1.35.48.48,0,0,1,.08.31,1.56,1.56,0,0,0,.08.42.31.31,0,0,1,0,.1l0,0a.32.32,0,0,0,0,.17c0,.11,0,.23.05.35l.06.35a.28.28,0,0,1,0,.09,3,3,0,0,0,.12.72.36.36,0,0,1,0,.1,1.45,1.45,0,0,0,0,.55,1.09,1.09,0,0,1,0,.25l.05,0v.24c0,.15,0,.3,0,.46a1.5,1.5,0,0,1,0,.2l0,0,.07,0a2.42,2.42,0,0,1,0,.38,1.24,1.24,0,0,0,0,.43,1.32,1.32,0,0,1,0,.3v.26a.24.24,0,0,1,0,.26.34.34,0,0,0,0,.13l0,.11.06.07a2.36,2.36,0,0,0,0,.46c0,.15,0,.3,0,.44l.12.05-.12.13a2.12,2.12,0,0,0,.06.49l-.06,0,0,.14a.16.16,0,0,0,0,.25l-.09.1,0,.35c.06,0,.07-.05.07-.09a1.82,1.82,0,0,1,.14-.52c-.05-.13,0-.22.06-.33s0,0,0-.05a.85.85,0,0,0,.05-.35.46.46,0,0,0,.1-.32,5.48,5.48,0,0,0,.22-.72c-.06-.1,0-.17.07-.25l.09-.3v-.13c0-.05.09-.07.05-.15s.05-.1.06-.16a1.21,1.21,0,0,1,.11-.3c0-.08,0-.16.05-.23s.09-.14,0-.22v0c.09-.14.07-.31.13-.46s0-.2.15-.25a.46.46,0,0,1,.13-.34l0-.07c.06-.18.11-.34.15-.5a.56.56,0,0,1,.07-.18.11.11,0,0,0,0-.08c0-.14.13-.24.14-.39s.05-.07.06-.11.13-.25.15-.38.13-.24.09-.38,0-.18.14-.23.07-.17.1-.27.08-.15.1-.23.1-.16.08-.26.16-.16.12-.28a1.22,1.22,0,0,0,.2-.45c.13-.19.17-.43.31-.61s.09-.09.05-.16l.15-.27v0l.25-.43v0a1.48,1.48,0,0,0,.21-.32.83.83,0,0,1,.14-.26c.06-.06.08-.17.13-.25a1.2,1.2,0,0,1,.22-.36l.11-.11a.37.37,0,0,1,.17-.26c0-.06,0-.15.11-.18s.09-.12.12-.18.17-.24.24-.37,0,0,.07,0v-.14a.81.81,0,0,0,.27-.25.24.24,0,0,1,.13-.11c.13-.05.2-.16.31-.23l.08-.1.17.06v.13l.15-.17h.17l.1-.09,0,.07a.44.44,0,0,1,.35-.1l-.07.12h.15s0,0,0,0h0l.07,0c.08,0,.06-.14.1-.19a2.34,2.34,0,0,1,0-.26.6.6,0,0,0,0-.23c0-.08,0-.17,0-.25l0-.22c0-.08,0-.17,0-.25l0-.24a1,1,0,0,1-.05-.25c0-.07-.1-.12,0-.23l0,0c.06-.16-.09-.28,0-.43l0-.06a.76.76,0,0,1,.21-.53l.15.07,0-.13h0a.28.28,0,0,0,.14.12.31.31,0,0,0,.13.27.27.27,0,0,0-.13-.27l.08-.09.13.09c0-.1-.08-.19,0-.28.11.08.15.22.27.29l0,.08a.71.71,0,0,1,.23.4c0,.16.07.31.1.45s0,.07.07.14l0-.11h0a.08.08,0,0,1,.11.08c0,.11.07.21.1.33l0,.08.1.13c0,.22,0,.45,0,.67a2,2,0,0,0,0,.24s0,.08,0,.11,0,.16,0,.23.05.27.06.41a.25.25,0,0,1,0,.12c0,.26.09.5.1.75s0,.48,0,.74l0,.06-.05.1.05.11a.26.26,0,0,0,0,.23c0,.14,0,.26,0,.38a1,1,0,0,0,0,.3c0,.09,0,.19,0,.28s0,.19,0,.29l-.12.08.07.05a.51.51,0,0,1,0,.17c0,.2,0,.4,0,.59a.88.88,0,0,0,0,.36s0,.06,0,.09l-.06.25,0,0a.83.83,0,0,1,0,.47.38.38,0,0,0,0,.1,1.41,1.41,0,0,1-.07.5l0,0-.06.09,0,.07c0,.13,0,.25,0,.37s-.09.35-.13.53c0,0,0,.05,0,.08a2.54,2.54,0,0,1,0,.29c-.07.17,0,.36-.13.53,0,0,0,0,0,.08a3.1,3.1,0,0,1-.23.71l0,.05-.11.28a2.71,2.71,0,0,0-.08.39c0,.12-.08.21-.05.32l-.1.12,0,.08-.07.09.1.07-.08.06c.05.11-.11.2,0,.32l-.16.31,0,.05a2.07,2.07,0,0,1-.23.56v.19l-.11.12v.13c-.05.12-.13.22-.08.36s0,.09,0,.1,0,.15-.07.18l-.08,0,.07.08c-.06.06-.05.15-.07.22l-.1.28-.08.09v.12a.41.41,0,0,0-.11.28.44.44,0,0,1-.07.19,1,1,0,0,1,0,.14l-.07.05,0,0a.21.21,0,0,1-.07.19.72.72,0,0,0-.17.39.81.81,0,0,1-.07.22l-.09.21c0,.07-.06.13-.16.11l.07.1-.08.25h0l-.11.15,0,0,.35-.35c.17-.16.31-.34.49-.49a3.33,3.33,0,0,0,.25-.28s0-.06,0-.09l.22-.14,0-.12a.57.57,0,0,0,.24-.19l.56-.56.23-.24a.83.83,0,0,0,.09-.15s.11,0,.14-.1.08-.08.13-.11a.46.46,0,0,0,.16-.23l.18-.14c.16-.15.32-.31.47-.47a4.47,4.47,0,0,0,.42-.45.54.54,0,0,1,.12-.09,3.55,3.55,0,0,0,.33-.34,1.5,1.5,0,0,1,.29-.27l.07-.09s.08,0,.11-.07.24-.22.36-.34.37-.36.56-.54l.34-.31.27-.25a.86.86,0,0,0,.07-.1l.11,0a.92.92,0,0,1,.29-.3A.6.6,0,0,0,349,207l.19-.15c0-.05.09-.11.17-.12l0,.07.06,0,0,0a.26.26,0,0,1,.17-.15l.05.07,0,0-.06-.16.08,0s0,0,0,0h0c0-.07,0-.1.11-.1h0l0,.17.13-.17h0c.05,0,.11,0,.13-.05s.22-.19.31-.31,0,0,0-.07.26-.08.3-.26a.62.62,0,0,0,.26-.17c.09-.07.19-.13.22-.25l.11,0,.46-.42a1.72,1.72,0,0,0,.3-.23c.06-.07.16-.08.21-.16a.49.49,0,0,1,.13-.12l.22-.17.13-.09c.1-.06.21-.11.21-.26a.3.3,0,0,1,.06-.13l.17.07.12-.18h.13l.12-.09.08.06.16-.07.12.1.16-.17c.06.08,0,.11,0,.16l.12,0,.06,0,.22,0-.06.08s.07,0,.09,0a.27.27,0,0,1,.41.09c.07.1.15.18.22.27s.07.08.07.12.12.2.1.29v.39l.09.06v.23l-.1,0,.1,0c-.06,0,0,.13-.07.16l-.06-.1,0,.15.09-.05s0,.06,0,.08-.13.34-.23.48-.1.08-.11.12a.94.94,0,0,1-.14.26,1.75,1.75,0,0,1-.18.29c-.1.13-.16.27-.26.39a1.38,1.38,0,0,0-.2.33l0,0-.46.6h0c0-.07,0-.12.08-.17a1.51,1.51,0,0,0,.09-.18.24.24,0,0,0,.1-.1c-.08,0-.1.05-.1.1s-.08,0-.11.08a2.38,2.38,0,0,1-.31.4.11.11,0,0,1-.13,0l.23-.36c-.07,0-.09.07-.16,0s0-.09.07-.11.11-.18.18-.28l-.13,0a.87.87,0,0,1-.29.37l-.07.18-.23.05c.07-.15.21-.23.24-.4l-.12.07h0c.06-.08.13-.16.19-.25s.1-.2.15-.31a.36.36,0,0,0,.15-.17c0-.07.13-.11.07-.2l.06,0c.13-.09.11-.25.22-.33v-.16l.06,0,0,0,.15-.28c-.06,0-.09,0-.12,0a.23.23,0,0,0-.08.11.43.43,0,0,1-.17.21c0-.11.12-.18.08-.3s-.13.1-.16.18,0,.17-.07.25a.44.44,0,0,1-.13.25.21.21,0,0,0,0,.14.23.23,0,0,1-.13.19l0,.07-.19.39-.11.32.05,0s0,.07-.05.08a1.09,1.09,0,0,0-.22.26.55.55,0,0,0-.1.22.85.85,0,0,1-.21.34l0,.08c0,.06-.11.11-.13.18s-.1.12-.13.21-.09.13-.07.2-.13.24-.2.35-.19.35-.28.52a.19.19,0,0,1-.05.1.46.46,0,0,0-.11.16,1.51,1.51,0,0,1-.15.28,4,4,0,0,0-.32.52,2.07,2.07,0,0,1-.19.32c-.07.08-.08.2-.15.28a0,0,0,0,0,0,0,2.51,2.51,0,0,0-.41.61l-.25.35a.68.68,0,0,0-.12.22s-.07.08-.09.12c-.13.23-.33.42-.46.66,0,0,0,0,0,0a.64.64,0,0,0-.14.22.69.69,0,0,1-.16.22l-.19.27c-.23.28-.46.57-.67.87a4.25,4.25,0,0,1-.37.47,6.69,6.69,0,0,0-.5.58,4.48,4.48,0,0,0-.48.58s-.05,0-.07.05l-.12.14s-.06.1-.1.14-.29.25-.42.39a1.81,1.81,0,0,0-.18.21l-.14.16-.3.31s0,0,0,0-.22.22-.35.3l0,.05a1.07,1.07,0,0,1-.18.19c-.3.27-.6.55-.89.84a1.43,1.43,0,0,0-.2.23c-.21.12-.36.32-.55.45a2.84,2.84,0,0,1-.26.24c-.16.12-.29.27-.44.39a3.43,3.43,0,0,1-.43.32.45.45,0,0,0-.13.11l-.13.11-.32.31h0c-.07.06-.12.16-.23.16s0,0-.07,0a2.1,2.1,0,0,1-.33.26v.09l-.12,0-.05.17h-.05l0,0v0h.06c0,.08-.1,0-.17.06s-.28.13-.37.28-.26.18-.38.28l-.09,0,.07.1-.17,0a2.52,2.52,0,0,0-.27.15l-.08.14c-.16,0-.26.12-.38.2a3.26,3.26,0,0,1-.48.27c-.1,0-.17.12-.27.17a1.45,1.45,0,0,1-.22.09c-.06,0-.06.13-.14.13s-.1.07-.15.08-.11.06-.17.07a1.62,1.62,0,0,0-.18.1l-.18.09-.14,0-.21.21s-.08,0-.1,0-.25.05-.35.13a.47.47,0,0,1-.29.08l-.07,0-.14,0-.06.09h-.06l-.27,0c-.06.1-.18.05-.25.11a.51.51,0,0,1-.21.06,1.69,1.69,0,0,0-.24.05.28.28,0,0,1-.29,0l-.1.07c-.12-.06-.27,0-.38-.13l-.34,0,0-.12c-.08,0,0,.09-.08.13l-.18,0c-.11-.07-.12-.24-.27-.28l-.12,0-.18-.1s0,0,0-.05-.07-.16-.11-.25l-.15.11-.15-.11a.58.58,0,0,0-.05-.37l-.08.06-.3-.27c-.11.08,0,.16,0,.24a1.12,1.12,0,0,1-.44-.17l-.07,0-.1-.07a.11.11,0,0,0-.07.15l.12.23c-.08,0-.08-.06-.1-.12l-.08,0,0-.11-.07.08h-.12l0,0c0-.08-.13-.11-.2-.15s-.08,0-.11-.05a.35.35,0,0,0-.4-.06l-.08-.06h-.15l0,.08-.25.07-.15,0v-.1a.41.41,0,0,1-.46.05c-.2.09-.39-.07-.61,0a.66.66,0,0,0-.26-.06,1.64,1.64,0,0,1-.32,0,.23.23,0,0,0-.21,0,.94.94,0,0,1-.24.06h0a.16.16,0,0,0-.07-.07l-.24-.07-.18,0-.3-.13,0,0c.09.12.27,0,.34.18l-.06.08.46.17a.43.43,0,0,1-.3,0,1,1,0,0,0-.48-.07h0a.09.09,0,0,0-.12-.07v0h0a.84.84,0,0,0-.24-.07c-.13,0-.24-.1-.37-.1a.34.34,0,0,0-.27-.08c-.05,0-.09-.05-.14-.08l0,0-.34-.13-.08,0a.49.49,0,0,0-.36-.11v0c-.18,0-.31-.19-.5-.23a.67.67,0,0,1-.21-.1l-.21-.11a.25.25,0,0,0-.17,0,.17.17,0,0,1-.19,0l-.09,0-.05,0c-.19,0-.31-.18-.48-.15a1.93,1.93,0,0,0-.24-.13A.9.9,0,0,1,322,223a.78.78,0,0,0-.22-.12c-.22-.09-.42-.24-.64-.35,0,0-.05,0-.07,0h0a1.89,1.89,0,0,1-.21-.09l-.18-.11s0-.05,0-.1a1.22,1.22,0,0,0-.34-.24l0,.05-.08-.1c-.1.05-.17,0-.24-.07s-.1-.14-.16-.22l0,.05h-.06l0,0h-.09c-.06,0-.12-.11-.21-.14s0,0,0-.08-.11,0-.15,0h.07s0,0,0,0-.19-.12-.3-.11-.23-.1-.31-.19a.08.08,0,0,0,0,0c-.17-.05-.26-.2-.37-.3a.84.84,0,0,1-.19-.07,3.57,3.57,0,0,1-.55-.41h.12l-.07-.07-.05.07h0a6.23,6.23,0,0,1-.7-.57s0,0-.07,0l0-.08h-.12a5.89,5.89,0,0,0-.7-.59,1.49,1.49,0,0,0-.38-.37.68.68,0,0,1-.2-.18c-.08-.09-.19-.16-.28-.25a3.39,3.39,0,0,0-.31-.34,3,3,0,0,0-.32-.25c-.06-.19-.3-.28-.39-.45l-.14-.11-.07-.07s-.06,0-.07-.06a1.44,1.44,0,0,0-.33-.37.44.44,0,0,1-.08-.11.86.86,0,0,0-.15-.22A.67.67,0,0,1,313,216H313l-.41-.7,0-.1-.09-.07a.08.08,0,0,1,0,0,1.16,1.16,0,0,1,0-.18.33.33,0,0,1,0-.29l-.09,0a.29.29,0,0,1,.1-.33l0-.11.05-.13h.1c0,.07,0,.14.12.16l.17-.21H313c0-.06,0-.17.09-.2l0,0v.11h.1l-.1-.1,0,0v-.06l-.09,0,0-.12.05-.1.18-.06c0,.16.11.25.15.37l.19-.06c0,.17.16.21.23.31a2.78,2.78,0,0,0,.3.29.38.38,0,0,0,.28,0,.72.72,0,0,1,.25,0H315a.91.91,0,0,1,.23,0c.12,0,.24,0,.36,0l.47.09a1.27,1.27,0,0,0,.34,0l.07.05.54,0c.09.08.23.06.36.09s.18,0,.24.08a.61.61,0,0,1,.27,0c.15.05.31.07.47.12a1.51,1.51,0,0,0,.37.07h0a3.79,3.79,0,0,0,.65.21l.44.15a.34.34,0,0,0,.28,0,.19.19,0,0,0,.18.13,1.06,1.06,0,0,1,.34.12s0,0,0,0h.17a1,1,0,0,0,.53.18l.34.21.08,0,.22.13h.1l0,0a.62.62,0,0,0,.29.15,1.74,1.74,0,0,1,.25.11l.25.13H323l.14.13.12,0h0l-.14-.14ZM349.21,207l0,0c-.05,0-.09,0-.09.09l.09-.09,0,0,0,0Zm-20.74,16.87c-.05-.07-.12,0-.18,0l-.06-.06a.93.93,0,0,1,.44.08l-.05,0c.05.08.13,0,.19,0v-.06h.1l.06.07h0l0,0a.85.85,0,0,0,.23,0s.06,0,.1,0h0a.16.16,0,0,0,.15.07l0-.09h.05c0-.12-.13-.15-.2-.2a.63.63,0,0,0-.24-.29c-.09,0-.14-.13-.22-.18l-.11-.13-.51-.45a2.16,2.16,0,0,1-.25-.27.85.85,0,0,0-.17-.16,3.37,3.37,0,0,1-.5-.42,1,1,0,0,0-.34-.28,1.37,1.37,0,0,1-.18-.16c-.22-.17-.43-.34-.65-.53l-.14,0a.54.54,0,0,0-.23-.22.4.4,0,0,1-.22-.17.73.73,0,0,1-.15-.11.3.3,0,0,1-.1-.09l-.16,0-.12-.18-.21-.11c-.18-.12-.36-.23-.53-.36a.34.34,0,0,0-.14-.05h0v-.07a.45.45,0,0,1-.12-.06,1.55,1.55,0,0,0-.46-.24l-.06,0-.19-.13-.09,0-.21-.19a1.27,1.27,0,0,0-.41-.23s-.05,0-.08,0l-.43-.25a.46.46,0,0,0-.25-.1h0l0-.08s-.1,0-.13,0a1.63,1.63,0,0,0-.34-.19l-.52-.23-.13-.07a.4.4,0,0,0-.22,0,.21.21,0,0,0-.18-.13l-.3-.11c-.18-.08-.35-.21-.56-.16l-.13-.12-.32-.09-.42-.13a2.14,2.14,0,0,0-.7-.19.65.65,0,0,0-.17-.08,2.89,2.89,0,0,0-.58-.14h0l-.1-.08h-.15c-.25-.06-.5-.12-.75-.16h-.3c.05.11.08.22.17.27s.17.21.29.26.23.22.35.33a1.18,1.18,0,0,1,.24.26s.08,0,.1,0l.4.36.23.17a1.29,1.29,0,0,0,.17.16,3.37,3.37,0,0,1,.35.29.33.33,0,0,0,.21.12,8.36,8.36,0,0,0,.89.65l.07.11h.11l.12.11.24.18a.61.61,0,0,0,.16.12,1.71,1.71,0,0,1,.42.28s0,.06.08.06.14.1.2.14a.34.34,0,0,1,.23.14c.06,0,.13,0,.16.06v0l.14.09a2.29,2.29,0,0,0,.29.18c.16.05.27.19.42.25s.12.09.18.14l.22.13c.14.08.28.17.43.24a6.55,6.55,0,0,0,.58.32.59.59,0,0,1,.17.12c.62.25,1.2.6,1.82.87.05.11.19.1.26.2l.08,0,.2.1.34.13a.18.18,0,0,1,.07.05v0l-.25-.07c.1.09.24.1.38.18l-.07-.12.22,0c.12,0,.27,0,.33.15l.39.1a.5.5,0,0,0,.17,0,.48.48,0,0,1,.22.05,1.35,1.35,0,0,0,.32.11l.37.16-.11,0c-.07-.07-.18-.06-.26-.08s-.2-.06-.28,0a1.69,1.69,0,0,0,.54.12c.05.06.12,0,.18,0s.11,0,.17,0l0,0v0ZM352.91,207c0-.13.11-.25.17-.37l0-.07s-.07.06-.08.09,0,.13-.05.2,0,.1,0,.15-.08.08-.1.14-.08.14-.11.21a1,1,0,0,1-.13.3.23.23,0,0,0,0,.1.08.08,0,0,0,.06,0c.11-.22.21-.44.31-.67A.13.13,0,0,0,352.91,207Zm-18,14.81,0,0,.12-.14,0,0,0-.1.08,0a.51.51,0,0,1,.17-.32l0,0,.05-.11-.06-.08c0-.19,0-.38,0-.57l-.09-.07a.2.2,0,0,0,0,.08c0,.09,0,.18-.06.25a5.27,5.27,0,0,1-.19.56,1.68,1.68,0,0,1-.07.44s0,0,0,0Zm1.68,1.43,0,0,0,0a3.62,3.62,0,0,0,.6-.28s.06-.06.08-.09a1.41,1.41,0,0,0,.56-.28l.07-.12.31-.11c.07-.17.29-.17.34-.33l.2-.09.58-.42,0-.06.4-.28.54-.4a2.43,2.43,0,0,0,.38-.34A4.31,4.31,0,0,1,341,220l.11,0,0-.08c.16-.16.34-.28.5-.44s.35-.27.5-.44l.18-.13.18-.18.64-.58a3.31,3.31,0,0,1,.33-.32.73.73,0,0,0,.09-.1.59.59,0,0,0,.31-.33l.17-.11a.62.62,0,0,1,.1-.16,2.7,2.7,0,0,1,.31-.28,1,1,0,0,0,.28-.29.73.73,0,0,1,.18-.16h0c.23-.22.41-.5.65-.7a.63.63,0,0,0,.11-.12,1.16,1.16,0,0,1,.18-.2.93.93,0,0,0,.22-.27.25.25,0,0,1,.2-.15c0-.09.07-.14.12-.21a1.15,1.15,0,0,0,.25-.37h.08v-.11a1.8,1.8,0,0,0,.52-.61l0-.05.11-.15a1.7,1.7,0,0,1,.26-.34s.05-.09.08-.13,0-.09.05-.13a2.75,2.75,0,0,0,.26-.4.18.18,0,0,1,.08-.07.41.41,0,0,0,.15-.2,1,1,0,0,1,.17-.28.76.76,0,0,0,.12-.2.22.22,0,0,0,.06-.05.76.76,0,0,0,.09-.18c.06-.13.14-.21.28-.16a.29.29,0,0,0,0-.2l.13-.07,0-.14a1.13,1.13,0,0,1,.11-.22,4.11,4.11,0,0,0,.24-.39l.1-.19.07,0,.1-.23.1-.07h0l.43-.79h.16c0-.09,0-.19.1-.24a.89.89,0,0,0,.16-.34c.09,0,.1-.1.13-.2l-.47.39a4.51,4.51,0,0,1-.38.39l-.15.14c-.07,0-.12.06-.18.12a1.83,1.83,0,0,1-.13.16l-.23.18c-.17.13-.28.33-.47.43,0,0,0,0,0,0l-.15.16-.05.1a.38.38,0,0,0-.15.09,4.89,4.89,0,0,0-.4.39l-.47.44-.16.16c-.1.11-.2.22-.31.32s-.15.21-.28.22l-.09.18-.07,0a2.78,2.78,0,0,0-.41.43c-.15.14-.29.31-.45.44s-.16.12-.17.21l-.22.13v.05l-.77.82s0,.06-.06.09l-.29.26a.74.74,0,0,0-.08.13,1.17,1.17,0,0,0-.35.35c0,.06-.08.14-.14.17a.77.77,0,0,0-.33.34l-.35.3a1.1,1.1,0,0,1-.09.14l-.05.06a1.27,1.27,0,0,1-.14.17.51.51,0,0,0-.2.25.7.7,0,0,0-.15.12.21.21,0,0,0-.08.11c0,.08-.09.08-.14.1l-.17.26a.33.33,0,0,0-.24.27c-.07.06-.11.14-.18.18s-.28.34-.46.48a7.54,7.54,0,0,0-.55.58s-.05,0-.06.07a3.33,3.33,0,0,1-.36.39,1.3,1.3,0,0,0-.19.22.17.17,0,0,1-.23.09v.13l-.52.51,0,.06-.16.12a.05.05,0,0,1,0,0h0c-.17.09-.25.27-.38.4a2.52,2.52,0,0,0-.3.38l-.13.05a.38.38,0,0,1-.15.23.39.39,0,0,0-.12.14c0,.12-.14.19-.21.29a4.51,4.51,0,0,0-.47.59,1.51,1.51,0,0,1-.17.2l0,.07a2.49,2.49,0,0,0-.34.4A1.74,1.74,0,0,0,336.56,223.2Zm-16.35-16.87h0a1.4,1.4,0,0,1,.11.4h.08c.05.14.11.28.15.42a.72.72,0,0,0,.09.2.37.37,0,0,1,.06.29l.1.08v.18l.16.1a1.52,1.52,0,0,0,.17.52l-.07.06.12,0a.87.87,0,0,0,.24.58l0,.07.13.11v.17l.2.38,0,.06.12.1,0,.1.08,0,.07.23,0,.06.15.15h0l.17.39.09,0a.24.24,0,0,0,0,.26.38.38,0,0,1,.09.13c.07.13.14.27.2.41s.13.23.18.36a1.41,1.41,0,0,0,.22.42,4.53,4.53,0,0,1,.27.48,5.05,5.05,0,0,0,.28.51.57.57,0,0,1,.12.28,1.4,1.4,0,0,1,.12.18,1.06,1.06,0,0,0,.29.42l-.05.1c.05,0,.13.07.14.1s.11.14.06.24c.11,0,.1.1.1.13s.14.26.21.37a3.71,3.71,0,0,0,.23.32,1.13,1.13,0,0,1,.3.48l.37.52a.09.09,0,0,1,0,.06.45.45,0,0,0,.13.22c.06.07.08.16.15.22a2.22,2.22,0,0,1,.25.35l.19.26.13.2a.16.16,0,0,0,0,.07l.37.46h.05a3,3,0,0,1,.3.46,0,0,0,0,0,0,0,2.75,2.75,0,0,0,.52.44.45.45,0,0,1,.19.15.82.82,0,0,0,.27.22l.05.13.16,0s0,.08.05.11a1.8,1.8,0,0,0,.21.19,1.51,1.51,0,0,0,.26.18c.05,0,.07.11.13.15s.26.22.38.34a1,1,0,0,1,.17.2l.2.11,0,.11a2.92,2.92,0,0,1,.29.23.76.76,0,0,1,.09.09c.05.11.15.14.24.22a.26.26,0,0,0,0-.12,4.62,4.62,0,0,0-.11-.63c-.08-.16,0-.36-.13-.53v-.05a1.08,1.08,0,0,0-.07-.31.51.51,0,0,1-.06-.2,1.47,1.47,0,0,0-.08-.3,2.45,2.45,0,0,0-.08-.29,2.08,2.08,0,0,1-.12-.32,2.25,2.25,0,0,1-.13-.51.06.06,0,0,0,0,0c-.06-.14-.12-.27-.17-.41s-.13-.36-.21-.54,0-.22-.11-.32a.65.65,0,0,1-.12-.31A.12.12,0,0,0,329,217a.28.28,0,0,1-.08-.24l-.13-.36-.07-.05s0-.07,0-.1a.51.51,0,0,1-.1-.21c0-.16-.13-.29-.17-.44s0,0,0-.07-.13-.21-.2-.32-.05-.08-.05-.14-.05-.11-.08-.17a1.47,1.47,0,0,1-.14-.28.94.94,0,0,0-.25-.39s0-.11,0-.14-.07-.18-.12-.26-.13-.15-.12-.26a2.25,2.25,0,0,1-.28-.47,4.17,4.17,0,0,0-.29-.46c-.08-.15-.13-.26-.19-.36a2,2,0,0,0-.2-.3l-.23-.25.07,0-.2-.27,0-.1-.11,0,0-.08-.12-.09c0-.16-.13-.3-.39-.56,0,0,0,0,0,0s-.18-.22-.2-.36l-.17-.09-.11-.24-.07,0s0-.05,0-.06-.12-.2-.22-.28-.09-.11-.14-.16a2.6,2.6,0,0,0-.26-.32,3.38,3.38,0,0,1-.31-.35,4.7,4.7,0,0,0-.4-.47,7.67,7.67,0,0,0-.56-.58,1.5,1.5,0,0,1-.2-.24.73.73,0,0,0-.09-.08l-.22-.22-.45-.41a1.47,1.47,0,0,0-.22-.21,1.42,1.42,0,0,1-.3-.25,3.7,3.7,0,0,0-.55-.49c-.07,0-.12-.13-.2-.17a1.16,1.16,0,0,1-.2-.18,5.29,5.29,0,0,0-.74-.53l-.08.08c0,.08.1.17,0,.25a2.94,2.94,0,0,0,.3.78l0,.06A.92.92,0,0,1,320.21,206.33Zm10.11-8.09.07.07c0,.08,0,.15-.05.23a1.1,1.1,0,0,1,0,.31h0l0,.21-.06.09v.2l0,0c0,.18-.06.36-.08.53s0,.08,0,.12a.36.36,0,0,1,0,.11,1.29,1.29,0,0,0,0,.39c0,.07,0,.14,0,.21a1.82,1.82,0,0,1,0,.57l0,.1-.06.07.07.11-.07.1,0,.06V202a.28.28,0,0,0,0,.25l-.05.07.1.21-.08.06a1.88,1.88,0,0,1,0,.58l0,.08,0,.07a.36.36,0,0,1,0,.32s0,.06,0,.1a.94.94,0,0,1,0,.55c0,.05,0,.11,0,.18a.28.28,0,0,0,0,.22c0,.08.06.16,0,.23s0,.16,0,.23l.08.06a.75.75,0,0,0,0,.51c0,.06,0,.09,0,.14l.06.08,0,.05a2.55,2.55,0,0,1,0,.39.36.36,0,0,0,.06.32,2,2,0,0,0,0,.44.56.56,0,0,0,0,.22.76.76,0,0,1,0,.3.34.34,0,0,0,0,.1,2,2,0,0,1,.07.64l0,.06a1.15,1.15,0,0,0,0,.2c0,.14,0,.29.05.44s0,.32,0,.49a.14.14,0,0,0,0,.06.41.41,0,0,1,0,.24.93.93,0,0,0,.08.44c.05.09,0,.16,0,.23s0,.24.05.36l.06.38.06.36.05,0c0,.18,0,.36,0,.54l.1.17a2.51,2.51,0,0,0,.1.6c0,.07.08.16,0,.24a1.09,1.09,0,0,1,.14.54l.12.35,0,.17s0,.08,0,.13a.37.37,0,0,0,0,.16l.08.09,0,.15-.05,0c0,.08.11.15.11.25a1,1,0,0,0,.09.33l0,.06c.05.11.11.19.07.3l.07.08c0,.05,0,.11,0,.14s.08.28.15.41.05.16.09.24a1.19,1.19,0,0,1,.07.27,1.49,1.49,0,0,0,.09.3c0,.08,0,.18.08.25s0,.06,0,.09,0,.2.07.31.08.29.18.39,0,.23.05.35.15.31.15.48c0,0,0,0,0,0a1.14,1.14,0,0,1,.13.31c0,.15.11.27.14.4s0,0,0,0l.06-.34,0,0c0-.2.08-.37.11-.55a1.76,1.76,0,0,0,.06-.46.25.25,0,0,1,0-.12s0-.06,0-.09a1.75,1.75,0,0,1,0-.33,1.53,1.53,0,0,0,.07-.36,1.07,1.07,0,0,1,.09-.34.32.32,0,0,1,0-.3l-.06-.13.13-.1a1.6,1.6,0,0,1,0-.44l-.07-.09.06-.12c0-.1-.05-.18-.07-.26l.09-.08,0-.16h0l0-.32.09-.13a.42.42,0,0,1,0-.22,1.74,1.74,0,0,0,.05-.22v-.24a.45.45,0,0,1,0-.12.59.59,0,0,0,0-.37l.06-.06a1.1,1.1,0,0,1,0-.36s0-.1,0-.15a.09.09,0,0,1,0,0l.06-.13c0-.12.06-.23,0-.33a.44.44,0,0,0,.1-.32l-.07-.08.07-.15-.07-.14.1-.21c0-.13,0-.26,0-.4a1,1,0,0,1,0-.43l0,0s0-.09,0-.12,0-.12,0-.17,0-.1,0-.13a.25.25,0,0,0,0-.17.13.13,0,0,1,0-.06,1.25,1.25,0,0,0,0-.43.54.54,0,0,1,0-.18,1,1,0,0,0,0-.34l.08-.12a2.13,2.13,0,0,1-.08-.66.39.39,0,0,1,0-.15.56.56,0,0,0,0-.34.56.56,0,0,1,0-.36l-.09-.15.07-.09,0-.11.05-.18a.25.25,0,0,1,0-.25.61.61,0,0,1-.08-.37.33.33,0,0,0,0-.14,1.88,1.88,0,0,1-.07-.58.79.79,0,0,0,0-.34.41.41,0,0,1,0-.29s0-.08,0-.11l-.06-.05.06-.07-.11-.16,0-.13-.07-.1a1.19,1.19,0,0,0,0-.32c0-.11,0-.24-.11-.32.08-.13,0-.25,0-.38a.58.58,0,0,0-.1-.36l.06-.09a.49.49,0,0,0-.06-.16c-.08,0,0-.14-.08-.2a1.47,1.47,0,0,0-.06-.59,1.64,1.64,0,0,1-.05-.37.39.39,0,0,1-.07-.23.59.59,0,0,0-.05-.22,1.06,1.06,0,0,1-.09-.5l-.06-.08c0-.16-.07-.33-.1-.5l-.08-.18a.25.25,0,0,0,0-.19.89.89,0,0,1-.09-.29,1,1,0,0,0-.09-.23l0-.06c0-.11-.05-.2-.07-.3a3.45,3.45,0,0,0-.14-.42s0-.06,0-.09,0,0,0-.09a.43.43,0,0,0,0-.19l-.06-.25h0l-.1-.2v-.17a1.13,1.13,0,0,1-.13-.2c0-.09,0-.2-.05-.27a2.34,2.34,0,0,1-.09-.24.47.47,0,0,1-.07-.17.67.67,0,0,0-.08-.25l0-.07a.38.38,0,0,0-.14-.28l0-.09a3.29,3.29,0,0,0-.17-.39c-.06-.13,0-.29-.17-.39s-.05-.15-.08-.22,0-.16-.08-.24-.12-.35-.19-.51-.11-.26-.17-.38l-.07,0,0,.08a.33.33,0,0,0-.08.33.66.66,0,0,0-.08.32,2.33,2.33,0,0,1-.08.36c0,.15,0,.3,0,.45s0,.13-.08.17a0,0,0,0,1,0,0l.05,0c-.07.17,0,.35-.1.51s0,0,0,0,0,.25,0,.37l-.12.06.08.1c0,.1-.07.2,0,.3s0,0,0,0l0,.17c0,.07,0,.14,0,.2v.19l-.06.07.07.08-.11.25-.05,0v0Zm12.6,6.19c0-.12,0-.22.05-.32s0-.36.1-.53a.69.69,0,0,0,.05-.24,2.85,2.85,0,0,1,.06-.49,1.17,1.17,0,0,1,0-.27c0-.15,0-.31.06-.46a2.12,2.12,0,0,0,0-.44.33.33,0,0,0,0-.1s0-.06,0-.09l0-.05c0-.1,0-.18.05-.27,0-.29,0-.57,0-.86a1.23,1.23,0,0,0,0-.27,1.47,1.47,0,0,1,0-.21h0a1.78,1.78,0,0,0-.22.26c-.06.1-.14.18-.21.28s-.12.19-.17.28l0,.06-.26.31v.11a1.22,1.22,0,0,0-.18.26c-.07.15-.17.29-.23.44s-.25.33-.32.52a1.67,1.67,0,0,1-.12.23,1.71,1.71,0,0,0-.13.23,1,1,0,0,1-.21.43s0,.1-.06.16l-.09.25a.5.5,0,0,1,0,.13.86.86,0,0,1-.18.34.58.58,0,0,0-.13.3.53.53,0,0,1-.08.22,1.39,1.39,0,0,0-.17.44.53.53,0,0,1-.08.17,1,1,0,0,0-.11.27.51.51,0,0,1-.15.35s0,0,0,0q-.06.24-.12.51l-.12.14c.06.09,0,.13-.06.19l0,0a1.85,1.85,0,0,0-.25.76l-.09.1a1.67,1.67,0,0,1-.08.32,1,1,0,0,0-.06.18,1.36,1.36,0,0,1-.2.48s0,.07,0,.1a1.67,1.67,0,0,1-.21.45l0,.11a2.64,2.64,0,0,1-.1.3,1.21,1.21,0,0,0-.07.33,2,2,0,0,1-.11.35.76.76,0,0,0-.06.37l-.12.1c0,.05,0,.09,0,.11a.88.88,0,0,0-.07.32.78.78,0,0,1-.09.33.77.77,0,0,0-.07.29.19.19,0,0,1-.08.17v.15l-.08.06,0,.1c0,.05-.09.07,0,.13s0,.2-.06.3a5.6,5.6,0,0,0-.2.7.41.41,0,0,0,0,.29c-.07.05,0,.13-.07.2a.91.91,0,0,0-.05.54l-.07,0a1.87,1.87,0,0,1-.08.34,2.93,2.93,0,0,0-.11.59c0,.25-.11.5-.13.76s-.12.32-.06.5l-.06.07c0,.06,0,.12,0,.18a.11.11,0,0,0,0,.06l0,.29a2.93,2.93,0,0,0-.05.29c0,.17-.06.35-.09.55l-.05.06c0,.09,0,.17,0,.26s-.05.17-.05.25-.05.17,0,.26a.61.61,0,0,1,.11-.18.64.64,0,0,0,.13-.15c.13-.17.2-.39.35-.56a.67.67,0,0,0,.12-.24.25.25,0,0,0,.14-.17.33.33,0,0,1,.06-.1c.1-.17.22-.33.31-.51a1.63,1.63,0,0,1,.11-.17.62.62,0,0,1,.09-.12l0-.1c.06-.07.13-.13.17-.19s.06-.15.1-.22a.75.75,0,0,1,.13-.18,1.5,1.5,0,0,1,.27-.45l0-.08s.05-.06.07-.1l.22-.38c.1-.17.16-.35.25-.51s.07-.2.12-.28a5.08,5.08,0,0,0,.4-.81c.06-.12.09-.25.16-.37a1.65,1.65,0,0,0,.21-.47,1.92,1.92,0,0,1,.09-.32s0-.1.05-.12a.44.44,0,0,0,.12-.29c.12-.29.23-.53.35-.8v-.11a.73.73,0,0,0,.14-.31c0-.11.06-.22.09-.33l.12-.31a4.2,4.2,0,0,0,.17-.5,6.36,6.36,0,0,1,.25-.85c0-.13.06-.25.1-.38a2.93,2.93,0,0,1,.2-.59s0-.09,0-.12.05-.24.09-.35a1,1,0,0,0,.05-.18s0-.1.08-.16a.14.14,0,0,1,0-.14,1.48,1.48,0,0,0,.12-.41,2.23,2.23,0,0,0,0-.23,2,2,0,0,1,.1-.49c0-.11.06-.23.07-.34s.05-.21.08-.32,0-.08,0-.11a.6.6,0,0,1,.05-.24A.18.18,0,0,0,342.92,204.43Zm12,.06.06-.13s0-.08,0-.13l-.15-.07-.08.07.07.07v.14ZM353.32,206a.65.65,0,0,0-.22.45h0Zm.5,1.28a.15.15,0,0,0,.15-.12c0-.07.13-.07.07-.16S353.9,207.23,353.82,207.32Zm-17.83,16c-.12.05-.12.05-.21.24C335.89,223.54,335.93,223.44,336,223.35ZM344.61,196l.08.12,0,0-.07-.2Zm-.59-1.1h-.1l.05.13h0Zm7.41,15v-.13l-.11,0Zm-2.18-3.08c.06,0,.12,0,.13-.08Zm-4.54-10.66a.13.13,0,0,0,0,.18.33.33,0,0,1,0-.1A.25.25,0,0,1,344.71,196.2Zm5.62,15.69c-.07-.06-.09,0-.12.05Zm-24.87,11,0,0,.12,0v0ZM354.07,207h0l0-.06h0Zm-1.55.81c-.08,0-.07.06,0,.11ZM326.6,223.34v0l-.08,0v0Zm-10.9-7.28,0,0,0,0h0Zm13.63-23.74,0,0,0,0Zm-2,31.21h0v0Zm22.49-10.94h0v0h0ZM344.35,196h0v0h0Zm-8.08,15.69h0v0h0Zm-1,8.5h0v0h0ZM331,194h0v0h0ZM330.43,222v0h0Zm5.27,1.62h0v0h0Zm-6.09-10.18h0Zm-.24-21.3h0v0ZM352.43,208h0Zm-3.59-.65h0Zm-14,14.6h0ZM332.5,225h0Zm-5.07-1.47h0Zm-1.08-.35h0Zm15.91-21.78h0Zm.45,5.26h0Zm-22,5.72h0Zm12.76,11.81h0ZM344.66,205h0Zm-27.2-.66h0v0Zm31,10.22h0Zm.2-7.15h0Zm-36.06,6.86h0ZM334,224.31h0Z" transform="translate(-312.36 -190.09)"/><path class="cls-1" d="M327.6,224.42c.19,0,.19,0,.3.08Z" transform="translate(-312.36 -190.09)"/><path class="cls-1" d="M321.46,222.82c-.07,0-.12,0-.2-.09a.24.24,0,0,1,.2.09Z" transform="translate(-312.36 -190.09)"/><path class="cls-1" d="M327,224.48c.06,0,.12-.06.18.05Z" transform="translate(-312.36 -190.09)"/><path class="cls-1" d="M352.71,208.12v-.07h.13Z" transform="translate(-312.36 -190.09)"/><path class="cls-1" d="M325.83,207.93l-.08-.08C325.82,207.85,325.82,207.85,325.83,207.93Z" transform="translate(-312.36 -190.09)"/><path class="cls-1" d="M327.19,224.53h.15v0h-.15Z" transform="translate(-312.36 -190.09)"/><path class="cls-1" d="M353.5,207.9l-.05.13c0-.09,0-.12.05-.13Z" transform="translate(-312.36 -190.09)"/><path class="cls-1" d="M328.47,197.06c-.06,0,0-.09,0-.14v.14Z" transform="translate(-312.36 -190.09)"/><path class="cls-1" d="M349.77,206.33l.05-.07.05.07h-.1Z" transform="translate(-312.36 -190.09)"/><path class="cls-1" d="M353.12,208.11l.06,0v0s0,0,0,0Z" transform="translate(-312.36 -190.09)"/><path class="cls-1" d="M321.62,222.9l.05,0v0l-.06,0Z" transform="translate(-312.36 -190.09)"/><path class="cls-1" d="M350.33,205.78l.05,0,0,0,0,.05Z" transform="translate(-312.36 -190.09)"/><path class="cls-1" d="M325.38,207.4l0,0v0l0,0Z" transform="translate(-312.36 -190.09)"/><path class="cls-1" d="M323.1,216.51c-.05,0-.07,0-.07-.07h0l.07.07Z" transform="translate(-312.36 -190.09)"/><path class="cls-1" d="M330.28,190.15c.06,0,0,.07,0,.11h0c-.06,0,0-.07,0-.11Z" transform="translate(-312.36 -190.09)"/><path class="cls-1" d="M330.28,190.15l0-.05h0v.06Z" transform="translate(-312.36 -190.09)"/><path class="cls-1" d="M327.59,224.62h0Z" transform="translate(-312.36 -190.09)"/><path class="cls-1" d="M321.08,222.61h.06v0l-.05,0Z" transform="translate(-312.36 -190.09)"/><path class="cls-1" d="M320.39,222.2h0Z" transform="translate(-312.36 -190.09)"/><path class="cls-1" d="M318.64,202.84l.05,0v0Z" transform="translate(-312.36 -190.09)"/><path class="cls-1" d="M318.43,202.81v-.06h0l0,.05Z" transform="translate(-312.36 -190.09)"/><path class="cls-1" d="M353.5,207.9l0,0h0l0,0Z" transform="translate(-312.36 -190.09)"/><polygon class="cls-1" points="40.6 18.36 40.59 18.34 40.6 18.34 40.61 18.35 40.6 18.36"/><polygon class="cls-1" points="40.28 18.57 40.27 18.55 40.28 18.55 40.3 18.56 40.28 18.57"/><path class="cls-1" d="M352.58,208.73h0Z" transform="translate(-312.36 -190.09)"/><polygon class="cls-1" points="37.91 15.77 37.91 15.76 37.92 15.77 37.91 15.78 37.91 15.77"/><path class="cls-1" d="M349.93,206.18h0Z" transform="translate(-312.36 -190.09)"/><polygon class="cls-1" points="16.95 1.86 16.96 1.85 16.97 1.86 16.96 1.87 16.95 1.86"/><path class="cls-1" d="M327.22,224.39l0,0v0Z" transform="translate(-312.36 -190.09)"/><path class="cls-1" d="M326.85,224.45h0Z" transform="translate(-312.36 -190.09)"/><path class="cls-1" d="M326.34,224.53v0Z" transform="translate(-312.36 -190.09)"/><path class="cls-1" d="M339.25,223.46h0Z" transform="translate(-312.36 -190.09)"/><path class="cls-1" d="M339.37,223.39h0v0Z" transform="translate(-312.36 -190.09)"/><path class="cls-1" d="M325.61,207.65h0Z" transform="translate(-312.36 -190.09)"/><polygon class="cls-1" points="30.13 22.6 30.14 22.59 30.15 22.6 30.14 22.61 30.13 22.6"/><path class="cls-1" d="M323.33,223.58h0Z" transform="translate(-312.36 -190.09)"/><path class="cls-1" d="M323,216.44h0s0,0,0,0Z" transform="translate(-312.36 -190.09)"/><path class="cls-1" d="M322.47,215.43v0Z" transform="translate(-312.36 -190.09)"/><polygon class="cls-1" points="10.02 25.25 10.03 25.24 10.03 25.25 10.03 25.26 10.02 25.25"/><polygon class="cls-1" points="9.95 25.14 9.96 25.14 9.96 25.14 9.96 25.15 9.95 25.14"/><path class="cls-1" d="M322.2,215h0l0,0Z" transform="translate(-312.36 -190.09)"/><path class="cls-1" d="M343.32,197.93v0l0,0h0Z" transform="translate(-312.36 -190.09)"/><path class="cls-1" d="M321.46,222.82h0Z" transform="translate(-312.36 -190.09)"/><path class="cls-1" d="M344.65,195.83h0l0,0Z" transform="translate(-312.36 -190.09)"/><path class="cls-1" d="M333.37,225.74h0Z" transform="translate(-312.36 -190.09)"/><path class="cls-1" d="M321.08,222.61l0,0h0l0,0Z" transform="translate(-312.36 -190.09)"/><path class="cls-1" d="M320.5,222.25h0Z" transform="translate(-312.36 -190.09)"/><path class="cls-1" d="M319.75,221.74h0Z" transform="translate(-312.36 -190.09)"/><path class="cls-1" d="M319.47,202.9h0Z" transform="translate(-312.36 -190.09)"/><path class="cls-1" d="M319.34,202.81l0,0h0v0Z" transform="translate(-312.36 -190.09)"/><path class="cls-1" d="M319.23,221.42h0Z" transform="translate(-312.36 -190.09)"/><path class="cls-1" d="M328.53,196.27h0v0Z" transform="translate(-312.36 -190.09)"/><path class="cls-1" d="M318.64,202.84l0,0,0,0Z" transform="translate(-312.36 -190.09)"/><polygon class="cls-1" points="16.99 1.79 17 1.78 17.01 1.79 17 1.8 16.99 1.79"/><path class="cls-1" d="M318.43,202.81l0,0h0l0,0Z" transform="translate(-312.36 -190.09)"/><path class="cls-1" d="M329,223.9s.05-.07.08-.07a.3.3,0,0,1,.19.07Z" transform="translate(-312.36 -190.09)"/><path class="cls-1" d="M329.12,223.72h-.32A.5.5,0,0,1,329.12,223.72Z" transform="translate(-312.36 -190.09)"/><path class="cls-1" d="M328.47,223.63l.12,0v0S328.49,223.72,328.47,223.63Z" transform="translate(-312.36 -190.09)"/><path class="cls-1" d="M329.31,223.93c0-.06.06,0,.09,0Z" transform="translate(-312.36 -190.09)"/><path class="cls-1" d="M328.17,223.6h0v0h0Z" transform="translate(-312.36 -190.09)"/><path class="cls-1" d="M328.29,223.6h0v0Z" transform="translate(-312.36 -190.09)"/><path class="cls-1" d="M348.85,211.27h0Z" transform="translate(-312.36 -190.09)"/><path class="cls-1" d="M334.92,221.74l0,0h0l0,0Z" transform="translate(-312.36 -190.09)"/><path class="cls-1" d="M334.92,221.74l0,0,0,0Z" transform="translate(-312.36 -190.09)"/><path class="cls-1" d="M335.09,221.48h0v0Z" transform="translate(-312.36 -190.09)"/></svg>